<?xml version="1.0" encoding="UTF-8"?>
<svg version="1.1" xmlns="http://www.w3.org/2000/svg" width="435" height="308">
<path d="M0 0 C143.55 0 287.1 0 435 0 C435 101.64 435 203.28 435 308 C291.45 308 147.9 308 0 308 C0 206.36 0 104.72 0 0 Z " fill="#FEFEFE" transform="translate(0,0)"/>
<path d="M0 0 C3.59126179 0.36599864 7.18064937 0.73787793 10.76806641 1.14013672 C12.60691406 1.31802734 12.60691406 1.31802734 14.48291016 1.49951172 C21.65891773 2.27570766 28.12943263 3.63145806 34.90991211 6.12060547 C37.57767174 7.13768975 37.57767174 7.13768975 41.20556641 7.89013672 C45.89134573 8.97372319 50.25067076 10.93987098 54.68212891 12.76806641 C59.34241374 14.66420819 63.99395684 16.0726416 68.86962891 17.32373047 C80.60920255 20.54030095 92.01153528 26.74189624 102.39306641 33.01513672 C107.87020927 35.88375205 113.40475501 38.62377098 119.08056641 41.07763672 C128.38076294 45.15816171 128.38076294 45.15816171 132.39306641 48.01513672 C132.72306641 49.00513672 133.05306641 49.99513672 133.39306641 51.01513672 C129.26555192 50.40814929 126.06095161 48.9770288 122.39306641 47.01513672 C123.54215513 48.16422544 124.69157686 49.31298235 125.84228516 50.46044922 C126.9125707 51.5334307 127.97735597 52.61191703 129.03759766 53.69482422 C132.451652 57.16282525 135.87326573 60.30331894 139.81494141 63.16748047 C144.60800775 68.77916458 144.94380404 75.79223807 144.89306641 82.82763672 C144.88879639 83.73618408 144.88452637 84.64473145 144.88012695 85.58081055 C144.57844832 97.88141047 141.599175 110.25060625 135.50634766 121.00732422 C134.31838441 123.03958556 134.31838441 123.03958556 133.45556641 125.46044922 C130.70661874 132.07005133 125.82328142 138.3606667 120.39306641 143.01513672 C119.73306641 143.01513672 119.07306641 143.01513672 118.39306641 143.01513672 C118.06306641 144.00513672 117.73306641 144.99513672 117.39306641 146.01513672 C115.50899854 147.40324723 113.56060536 148.70523612 111.58056641 149.95263672 C107.73890067 152.38116841 104.53927493 154.74166583 101.39306641 158.01513672 C99.01786613 159.20273686 97.84037576 159.0225392 95.20556641 158.89013672 C85.52510564 158.79164366 76.18878405 161.07966959 67.39306641 165.01513672 C65.79697894 165.58016617 64.19375179 166.12595154 62.58056641 166.64013672 C60.40985493 167.33506328 58.43254233 167.99539876 56.39306641 169.01513672 C41.16687271 170.67953846 25.67927241 170.2023597 10.39306641 170.01513672 C9.45011719 170.00788574 8.50716797 170.00063477 7.53564453 169.99316406 C-9.36450949 169.80331085 -24.28889114 166.45132972 -38.98193359 157.99169922 C-42.64062522 155.91777782 -46.42374068 154.42086278 -50.35693359 152.95263672 C-56.1116373 150.77789404 -61.13959637 148.05577238 -66.23974609 144.61279297 C-68.28061762 143.23537308 -70.32423091 142.00835385 -72.48193359 140.82763672 C-75.4627426 139.09876749 -78.05767626 137.33264339 -80.60693359 135.01513672 C-80.60693359 134.35513672 -80.60693359 133.69513672 -80.60693359 133.01513672 C-81.50412109 132.67482422 -81.50412109 132.67482422 -82.41943359 132.32763672 C-85.31581662 130.5898069 -86.03625704 129.03083569 -87.60693359 126.01513672 C-88.03490234 125.19658203 -88.46287109 124.37802734 -88.90380859 123.53466797 C-92.60693359 116.32605666 -92.60693359 116.32605666 -92.60693359 114.01513672 C-93.59693359 114.01513672 -94.58693359 114.01513672 -95.60693359 114.01513672 C-98.40144463 108.12019216 -98.01584776 102.06049445 -98.0324707 95.68017578 C-98.04424963 93.54843052 -98.09336076 91.4196992 -98.14404297 89.28857422 C-98.29675017 76.58575855 -94.44328339 66.44339737 -88.04443359 55.57763672 C-87.67125 54.9234375 -87.29806641 54.26923828 -86.91357422 53.59521484 C-85.83433276 51.72015012 -84.73069936 49.86381482 -83.60693359 48.01513672 C-83.24486816 47.41942871 -82.88280273 46.8237207 -82.50976562 46.20996094 C-81.60050071 44.7730615 -80.61047807 43.38784978 -79.60693359 42.01513672 C-78.94693359 42.01513672 -78.28693359 42.01513672 -77.60693359 42.01513672 C-77.33880859 41.37576172 -77.07068359 40.73638672 -76.79443359 40.07763672 C-75.60693359 38.01513672 -75.60693359 38.01513672 -72.60693359 37.01513672 C-71.52262265 35.26646189 -71.52262265 35.26646189 -70.60693359 33.01513672 C-69.60693359 31.01513672 -68.60693359 29.01513672 -67.60693359 27.01513672 C-66.61693359 27.01513672 -65.62693359 27.01513672 -64.60693359 27.01513672 C-64.11193359 28.00513672 -64.11193359 28.00513672 -63.60693359 29.01513672 C-61.51853996 27.9407608 -59.43659845 26.85618145 -57.35693359 25.76513672 C-56.19677734 25.16185547 -55.03662109 24.55857422 -53.84130859 23.93701172 C-50.60694198 22.23781962 -50.60694198 22.23781962 -48.68505859 19.84326172 C-46.12334471 17.58972395 -44.09758828 17.53501995 -40.77001953 17.26708984 C-37.07674188 16.8369022 -33.70749804 15.54047833 -30.23193359 14.26513672 C-29.49386475 13.99781738 -28.7557959 13.73049805 -27.99536133 13.45507812 C-17.89368869 10.38108432 -17.89368869 10.38108432 -10.35302734 3.86669922 C-10.10681641 3.25568359 -9.86060547 2.64466797 -9.60693359 2.01513672 C-8.82318359 2.05638672 -8.03943359 2.09763672 -7.23193359 2.14013672 C-3.7170211 1.97275993 -3.52242177 0.02045235 0 0 Z " fill="#FEFEFE" transform="translate(206.60693359375,66.98486328125)"/>
<path d="M0 0 C3.59126179 0.36599864 7.18064937 0.73787793 10.76806641 1.14013672 C12.60691406 1.31802734 12.60691406 1.31802734 14.48291016 1.49951172 C21.65891773 2.27570766 28.12943263 3.63145806 34.90991211 6.12060547 C37.57767174 7.13768975 37.57767174 7.13768975 41.20556641 7.89013672 C45.89134573 8.97372319 50.25067076 10.93987098 54.68212891 12.76806641 C59.34241374 14.66420819 63.99395684 16.0726416 68.86962891 17.32373047 C80.60920255 20.54030095 92.01153528 26.74189624 102.39306641 33.01513672 C107.87020927 35.88375205 113.40475501 38.62377098 119.08056641 41.07763672 C128.38076294 45.15816171 128.38076294 45.15816171 132.39306641 48.01513672 C132.72306641 49.00513672 133.05306641 49.99513672 133.39306641 51.01513672 C129.26555192 50.40814929 126.06095161 48.9770288 122.39306641 47.01513672 C123.54215513 48.16422544 124.69157686 49.31298235 125.84228516 50.46044922 C126.9125707 51.5334307 127.97735597 52.61191703 129.03759766 53.69482422 C132.451652 57.16282525 135.87326573 60.30331894 139.81494141 63.16748047 C144.60800775 68.77916458 144.94380404 75.79223807 144.89306641 82.82763672 C144.88879639 83.73618408 144.88452637 84.64473145 144.88012695 85.58081055 C144.57844832 97.88141047 141.599175 110.25060625 135.50634766 121.00732422 C134.31838441 123.03958556 134.31838441 123.03958556 133.45556641 125.46044922 C130.70661874 132.07005133 125.82328142 138.3606667 120.39306641 143.01513672 C119.73306641 143.01513672 119.07306641 143.01513672 118.39306641 143.01513672 C118.06306641 144.00513672 117.73306641 144.99513672 117.39306641 146.01513672 C115.50899854 147.40324723 113.56060536 148.70523612 111.58056641 149.95263672 C107.73890067 152.38116841 104.53927493 154.74166583 101.39306641 158.01513672 C99.01786613 159.20273686 97.84037576 159.0225392 95.20556641 158.89013672 C85.52510564 158.79164366 76.18878405 161.07966959 67.39306641 165.01513672 C65.79697894 165.58016617 64.19375179 166.12595154 62.58056641 166.64013672 C60.40985493 167.33506328 58.43254233 167.99539876 56.39306641 169.01513672 C41.16687271 170.67953846 25.67927241 170.2023597 10.39306641 170.01513672 C9.45011719 170.00788574 8.50716797 170.00063477 7.53564453 169.99316406 C-9.36450949 169.80331085 -24.28889114 166.45132972 -38.98193359 157.99169922 C-42.64062522 155.91777782 -46.42374068 154.42086278 -50.35693359 152.95263672 C-56.1116373 150.77789404 -61.13959637 148.05577238 -66.23974609 144.61279297 C-68.28061762 143.23537308 -70.32423091 142.00835385 -72.48193359 140.82763672 C-75.4627426 139.09876749 -78.05767626 137.33264339 -80.60693359 135.01513672 C-80.60693359 134.35513672 -80.60693359 133.69513672 -80.60693359 133.01513672 C-81.50412109 132.67482422 -81.50412109 132.67482422 -82.41943359 132.32763672 C-85.31581662 130.5898069 -86.03625704 129.03083569 -87.60693359 126.01513672 C-88.03490234 125.19658203 -88.46287109 124.37802734 -88.90380859 123.53466797 C-92.60693359 116.32605666 -92.60693359 116.32605666 -92.60693359 114.01513672 C-93.59693359 114.01513672 -94.58693359 114.01513672 -95.60693359 114.01513672 C-98.40144463 108.12019216 -98.01584776 102.06049445 -98.0324707 95.68017578 C-98.04424963 93.54843052 -98.09336076 91.4196992 -98.14404297 89.28857422 C-98.29675017 76.58575855 -94.44328339 66.44339737 -88.04443359 55.57763672 C-87.67125 54.9234375 -87.29806641 54.26923828 -86.91357422 53.59521484 C-85.83433276 51.72015012 -84.73069936 49.86381482 -83.60693359 48.01513672 C-83.24486816 47.41942871 -82.88280273 46.8237207 -82.50976562 46.20996094 C-81.60050071 44.7730615 -80.61047807 43.38784978 -79.60693359 42.01513672 C-78.94693359 42.01513672 -78.28693359 42.01513672 -77.60693359 42.01513672 C-77.33880859 41.37576172 -77.07068359 40.73638672 -76.79443359 40.07763672 C-75.60693359 38.01513672 -75.60693359 38.01513672 -72.60693359 37.01513672 C-71.52262265 35.26646189 -71.52262265 35.26646189 -70.60693359 33.01513672 C-69.60693359 31.01513672 -68.60693359 29.01513672 -67.60693359 27.01513672 C-66.61693359 27.01513672 -65.62693359 27.01513672 -64.60693359 27.01513672 C-64.11193359 28.00513672 -64.11193359 28.00513672 -63.60693359 29.01513672 C-61.51853996 27.9407608 -59.43659845 26.85618145 -57.35693359 25.76513672 C-56.19677734 25.16185547 -55.03662109 24.55857422 -53.84130859 23.93701172 C-50.60694198 22.23781962 -50.60694198 22.23781962 -48.68505859 19.84326172 C-46.12334471 17.58972395 -44.09758828 17.53501995 -40.77001953 17.26708984 C-37.07674188 16.8369022 -33.70749804 15.54047833 -30.23193359 14.26513672 C-29.49386475 13.99781738 -28.7557959 13.73049805 -27.99536133 13.45507812 C-17.89368869 10.38108432 -17.89368869 10.38108432 -10.35302734 3.86669922 C-10.10681641 3.25568359 -9.86060547 2.64466797 -9.60693359 2.01513672 C-8.82318359 2.05638672 -8.03943359 2.09763672 -7.23193359 2.14013672 C-3.7170211 1.97275993 -3.52242177 0.02045235 0 0 Z M15.39306641 36.01513672 C14.14395876 37.49434314 12.8976139 38.9761831 11.67822266 40.47998047 C9.10655249 43.55191474 7.40102132 44.86814329 3.39306641 45.45263672 C-0.26998309 44.918442 -1.33970444 43.87016602 -3.60693359 41.01513672 C-4.10193359 40.02513672 -4.10193359 40.02513672 -4.60693359 39.01513672 C-7.68546513 39.94585556 -10.32678938 40.8355571 -13.04443359 42.57763672 C-16.3793627 44.44845061 -18.77783403 45.01513672 -22.60693359 45.01513672 C-25.54443359 42.57763672 -25.54443359 42.57763672 -27.60693359 40.01513672 C-33.92855689 41.50257749 -37.87762029 43.42116676 -41.60693359 49.01513672 C-42.39068359 49.26263672 -43.17443359 49.51013672 -43.98193359 49.76513672 C-47.86259116 51.61306889 -48.70838758 54.21804469 -50.60693359 58.01513672 C-51.59693359 58.01513672 -52.58693359 58.01513672 -53.60693359 58.01513672 C-54.10193359 54.05513672 -54.10193359 54.05513672 -54.60693359 50.01513672 C-59.50875364 53.29446292 -61.47967067 56.96432087 -63.91943359 62.14013672 C-64.2784375 62.86845703 -64.63744141 63.59677734 -65.00732422 64.34716797 C-66.93095802 68.01184926 -66.93095802 68.01184926 -67.60693359 72.01513672 C-68.26693359 71.68513672 -68.92693359 71.35513672 -69.60693359 71.01513672 C-68.39211404 64.839804 -66.66805334 59.23741961 -64.31396484 53.39794922 C-63.32601137 50.90285564 -63.32601137 50.90285564 -64.60693359 48.01513672 C-65.26693359 48.01513672 -65.92693359 48.01513672 -66.60693359 48.01513672 C-66.60693359 48.67513672 -66.60693359 49.33513672 -66.60693359 50.01513672 C-67.20505859 50.28197266 -67.80318359 50.54880859 -68.41943359 50.82373047 C-74.99030704 54.40250976 -78.0266533 61.32158607 -80.60693359 68.01513672 C-81.26693359 68.01513672 -81.92693359 68.01513672 -82.60693359 68.01513672 C-80.86524224 60.82180982 -78.55032858 54.19465035 -75.49755859 47.44873047 C-75.20365234 46.64564453 -74.90974609 45.84255859 -74.60693359 45.01513672 C-74.93693359 44.35513672 -75.26693359 43.69513672 -75.60693359 43.01513672 C-82.78121833 52.91854419 -88.08462331 62.65382388 -92.60693359 74.01513672 C-93.12598267 75.14786011 -93.12598267 75.14786011 -93.65551758 76.3034668 C-95.47438397 81.48749272 -94.97618041 87.01299895 -94.98193359 92.45263672 C-95.00642578 93.66757813 -95.03091797 94.88251953 -95.05615234 96.13427734 C-95.07804438 102.79310655 -95.05209747 106.94435718 -90.60693359 112.01513672 C-88.69007212 115.47926872 -86.99998188 119.02095575 -85.54443359 122.70263672 C-81.59313496 132.44917335 -73.42362822 137.0362974 -64.60693359 142.01513672 C-63.75099609 142.51013672 -62.89505859 143.00513672 -62.01318359 143.51513672 C-55.95565433 146.93585913 -49.76059448 149.71277452 -43.33740234 152.37451172 C-40.04193782 153.77950744 -36.89980114 155.40436973 -33.73730469 157.08374023 C-19.09402258 164.79758022 -5.01742204 166.77067184 11.39306641 167.01513672 C12.26769531 167.0302832 13.14232422 167.04542969 14.04345703 167.06103516 C24.32959576 167.21306532 34.61257882 167.06960331 44.89306641 166.70263672 C45.75915527 166.68023926 46.62524414 166.6578418 47.51757812 166.63476562 C52.58048233 166.4135076 55.90540234 165.54859814 60.39306641 163.01513672 C62.23155351 162.44140635 64.08667292 161.91786625 65.95556641 161.45263672 C68.7091012 160.76132373 71.29343968 160.05572538 73.92431641 158.98388672 C76.42324658 158.00329386 78.68494667 157.50566456 81.33056641 157.07763672 C82.28833984 156.90619141 83.24611328 156.73474609 84.23291016 156.55810547 C86.42915543 156.18075307 88.63027962 155.83116971 90.83447266 155.50341797 C99.81695422 153.95539425 105.49546823 150.90003696 112.39306641 145.01513672 C113.04919922 144.49564453 113.70533203 143.97615234 114.38134766 143.44091797 C121.7798574 137.45321053 127.19128119 130.52342453 131.39306641 122.01513672 C131.89966797 121.01224609 132.40626953 120.00935547 132.92822266 118.97607422 C139.15533296 106.15465301 141.33993889 97.79860445 136.95556641 84.26513672 C135.13357931 78.55472278 133.54978358 72.90387871 132.39306641 67.01513672 C127.9946915 71.2661234 124.3064636 75.85184192 120.57666016 80.68701172 C118.40610077 83.00123962 117.48622678 83.70652208 114.39306641 84.01513672 C111.30489368 78.36920261 108.88725058 73.21011624 107.85009766 66.82763672 C107.49809836 64.77833117 107.49809836 64.77833117 105.39306641 63.01513672 C102.76731455 63.21994536 101.69174744 63.68737358 99.90869141 65.64404297 C99.49103516 66.28212891 99.07337891 66.92021484 98.64306641 67.57763672 C98.21509766 68.21830078 97.78712891 68.85896484 97.34619141 69.51904297 C97.03166016 70.01275391 96.71712891 70.50646484 96.39306641 71.01513672 C94.61572266 70.91357422 94.61572266 70.91357422 92.39306641 70.01513672 C90.99300143 67.8774031 89.90491475 65.93343991 88.83056641 63.64013672 C88.52465576 63.01397461 88.21874512 62.3878125 87.90356445 61.74267578 C85.66099699 56.99852822 84.19434187 52.28736734 83.19384766 47.12451172 C82.56096283 44.8583812 82.56096283 44.8583812 80.43603516 43.65576172 C78.35663159 42.7440429 78.35663159 42.7440429 76.39306641 44.01513672 C74.68942819 44.24135753 72.9797794 44.42402145 71.26806641 44.57763672 C70.35798828 44.66142578 69.44791016 44.74521484 68.51025391 44.83154297 C67.81158203 44.89212891 67.11291016 44.95271484 66.39306641 45.01513672 C66.02955078 46.21396484 66.02955078 46.21396484 65.65869141 47.43701172 C63.62017584 54.1170704 61.50165691 60.7559579 59.22509766 67.35888672 C58.42922013 69.89971637 57.86273451 72.39638123 57.39306641 75.01513672 C56.73306641 74.68513672 56.07306641 74.35513672 55.39306641 74.01513672 C55.9668866 69.82031322 56.97704367 65.96382464 58.25952148 61.94848633 C60.55412404 54.75079057 61.99882372 48.64767884 61.39306641 41.01513672 C58.75306641 40.68513672 56.11306641 40.35513672 53.39306641 40.01513672 C52.78978516 40.94197266 52.18650391 41.86880859 51.56494141 42.82373047 C50.7582506 44.03376668 49.95092567 45.2433803 49.14306641 46.45263672 C48.74732422 47.06429687 48.35158203 47.67595703 47.94384766 48.30615234 C44.90714097 52.8114303 44.90714097 52.8114303 42.09619141 53.92529297 C41.53416016 53.95494141 40.97212891 53.98458984 40.39306641 54.01513672 C40.39306641 55.33513672 40.39306641 56.65513672 40.39306641 58.01513672 C39.40306641 57.68513672 38.41306641 57.35513672 37.39306641 57.01513672 C37.06306641 54.04513672 36.73306641 51.07513672 36.39306641 48.01513672 C35.40306641 47.68513672 34.41306641 47.35513672 33.39306641 47.01513672 C33.06306641 47.67513672 32.73306641 48.33513672 32.39306641 49.01513672 C31.40306641 49.01513672 30.41306641 49.01513672 29.39306641 49.01513672 C28.07306641 46.04513672 26.75306641 43.07513672 25.39306641 40.01513672 C24.24837891 40.13888672 24.24837891 40.13888672 23.08056641 40.26513672 C20.39306641 40.01513672 20.39306641 40.01513672 18.70556641 38.01513672 C18.27244141 37.35513672 17.83931641 36.69513672 17.39306641 36.01513672 C16.73306641 36.01513672 16.07306641 36.01513672 15.39306641 36.01513672 Z " fill="#0E0E0E" transform="translate(206.60693359375,66.98486328125)"/>
<path d="M0 0 C6.435 2.97 6.435 2.97 13 6 C11.25044304 10.3738924 10.24163351 12.16146004 7.1875 15.4375 C4.02093455 18.88669151 0.96968351 22.38069822 -2 26 C-5.27701775 22.41088532 -7.2344583 17.77832622 -8 13 C-6.27222416 8.30636295 -2.77974305 4.10918538 0 0 Z " fill="#F7F7F7" transform="translate(325,122)"/>
<path d="M0 0 C3.84261473 0.60656534 7.68973048 1.16694969 11.54394531 1.69433594 C12.80464844 1.87609375 14.06535156 2.05785156 15.36425781 2.24511719 C18.59523653 2.69139334 18.59523653 2.69139334 21.41894531 0.38183594 C23.60644531 0.75683594 23.60644531 0.75683594 25.41894531 1.38183594 C25.41894531 2.04183594 25.41894531 2.70183594 25.41894531 3.38183594 C23.48144531 5.06933594 23.48144531 5.06933594 20.41894531 6.38183594 C17.39428097 6.12566539 14.42615081 5.77657652 11.41894531 5.38183594 C9.20461775 5.13752783 6.98972783 4.89828357 4.77441406 4.66308594 C2.38508574 4.40271884 -0.00423707 4.14230121 -2.39355469 3.88183594 C-3.60720703 3.75164062 -4.82085937 3.62144531 -6.07128906 3.48730469 C-7.23595703 3.3596875 -8.400625 3.23207031 -9.60058594 3.10058594 C-11.17996948 2.92946289 -11.17996948 2.92946289 -12.79125977 2.75488281 C-15.58105469 2.38183594 -15.58105469 2.38183594 -17.52049255 1.86561584 C-20.9190484 1.06770104 -24.37437349 1.26080813 -27.84667969 1.28417969 C-28.64007751 1.28559464 -29.43347534 1.28700958 -30.25091553 1.28846741 C-32.7776674 1.29405178 -35.30432972 1.3066014 -37.83105469 1.31933594 C-39.54719924 1.32435296 -41.26334518 1.32891551 -42.97949219 1.33300781 C-47.18004737 1.3440161 -51.38053586 1.36126997 -55.58105469 1.38183594 C-55.58105469 0.39183594 -55.58105469 -0.59816406 -55.58105469 -1.61816406 C-37.43750749 -5.90599455 -18.15060308 -2.88481642 0 0 Z " fill="#030303" transform="translate(245.5810546875,189.6181640625)"/>
<path d="M0 0 C1.79356554 0.01168447 3.58693086 0.10920715 5.375 0.25 C6.35210937 0.31703125 7.32921875 0.3840625 8.3359375 0.453125 C11 1 11 1 12.9140625 2.234375 C14 4 14 4 13.875 6.359375 C12.90529239 9.28581404 11.62886152 11.63442429 10 14.25 C9.46375 15.12140625 8.9275 15.9928125 8.375 16.890625 C7 19 7 19 6 20 C3.5 20.125 3.5 20.125 1 20 C-1.20059475 17.79940525 -0.47086432 12.97391201 -0.625 10 C-0.6765625 9.154375 -0.728125 8.30875 -0.78125 7.4375 C-0.82507813 6.633125 -0.86890625 5.82875 -0.9140625 5 C-0.9548291 4.2575 -0.9955957 3.515 -1.03759766 2.75 C-1 1 -1 1 0 0 Z " fill="#080808" transform="translate(285,150)"/>
<path d="M0 0 C3.27316295 1.44404248 4.94816541 3.0955215 7.125 5.9375 C8.22563947 13.39738976 5.58729375 18.4199375 1.375 24.4375 C0.9625 24.9325 0.55 25.4275 0.125 25.9375 C-1.525 25.6075 -3.175 25.2775 -4.875 24.9375 C-3.47561654 18.64027443 -1.38210309 12.87665684 1.125 6.9375 C1.785 6.9375 2.445 6.9375 3.125 6.9375 C3.125 6.2775 3.125 5.6175 3.125 4.9375 C1.475 4.6075 -0.175 4.2775 -1.875 3.9375 C-1.875 6.2475 -1.875 8.5575 -1.875 10.9375 C-2.865 10.6075 -3.855 10.2775 -4.875 9.9375 C-5.16796875 3.8828125 -5.16796875 3.8828125 -4.875 1.9375 C-1.875 -0.0625 -1.875 -0.0625 0 0 Z " fill="#0D0D0D" transform="translate(168.875,135.0625)"/>
<path d="M0 0 C3.08157991 0.31232229 4.56509829 0.49400859 6.625 2.890625 C7.07875 3.66921875 7.5325 4.4478125 8 5.25 C9.77351843 8.16133415 11.35705049 10.51980541 13.9375 12.75 C16 15 16 15 16.125 17.5 C14.67189917 20.72911295 12.61599122 22.65231557 10 25 C6.97602092 20.77674563 5.02145854 16.89186245 3.3125 11.9375 C2.89613281 10.75027344 2.47976563 9.56304687 2.05078125 8.33984375 C1.17439591 5.55430671 0.49426781 2.87327113 0 0 Z " fill="#F0F0F0" transform="translate(291,110)"/>
<path d="M0 0 C4.34484188 0.47398275 8.64440435 1.04940468 12.9375 1.875 C13.68902344 2.01679687 14.44054687 2.15859375 15.21484375 2.3046875 C16.09849609 2.64886719 16.09849609 2.64886719 17 3 C17.33 3.99 17.66 4.98 18 6 C16.5625 8.1875 16.5625 8.1875 15 10 C14.195625 9.649375 13.39125 9.29875 12.5625 8.9375 C7.96170488 7.72676444 4.68684301 8.28987227 0 9 C0 6.03 0 3.06 0 0 Z " fill="#F7F7F7" transform="translate(249,86)"/>
<path d="M0 0 C0 0.33 0 0.66 0 1 C-1.41623216 1.05447047 -2.83308191 1.09300508 -4.25 1.125 C-5.03890625 1.14820312 -5.8278125 1.17140625 -6.640625 1.1953125 C-9.20731941 0.9828378 -10.7916067 0.28654105 -13 -1 C-13.66 -0.34 -14.32 0.32 -15 1 C-18.10022605 2.07159988 -20.98984329 2.1053968 -24.25 2.0625 C-25.14203125 2.05347656 -26.0340625 2.04445313 -26.953125 2.03515625 C-27.62859375 2.02355469 -28.3040625 2.01195313 -29 2 C-29 0.35 -29 -1.3 -29 -3 C-20.80963112 -7.67503356 -8.59608958 -2.26768007 0 0 Z " fill="#FCFCFC" transform="translate(229,80)"/>
<path d="M0 0 C2.97 0 5.94 0 9 0 C6.19185228 4.64424431 3.53547698 7.94549509 -1 11 C-3.875 10.8125 -3.875 10.8125 -6 10 C-6.33 8.02 -6.66 6.04 -7 4 C-3 4 -3 4 -1 5 C-0.67 3.35 -0.34 1.7 0 0 Z " fill="#F2F2F2" transform="translate(212,99)"/>
<path d="M0 0 C10.54688314 3.4429264 19.82112274 7.73017636 29 14 C28.01 14.495 28.01 14.495 27 15 C25.17754602 14.07158005 23.35827631 13.13643165 21.5546875 12.171875 C18.53713692 10.78767748 15.51088382 9.94731366 12.3125 9.0625 C7.13825515 7.54560087 4.20075039 6.34387553 1 2 C0.67 1.34 0.34 0.68 0 0 Z " fill="#E6E6E6" transform="translate(292,102)"/>
<path d="M0 0 C0 0.99 0 1.98 0 3 C-1 4 -2 5 -3 6 C-3 6.99 -3 7.98 -3 9 C-1.68 9.66 -0.36 10.32 1 11 C-0.98 12.65 -2.96 14.3 -5 16 C-5.33 15.01 -5.66 14.02 -6 13 C-10.07964281 14.30155006 -10.07964281 14.30155006 -14 16 C-12.58038406 11.51530419 -10.3519227 9.00448309 -7 5.75 C-6.113125 4.87859375 -5.22625 4.0071875 -4.3125 3.109375 C-2 1 -2 1 0 0 Z " fill="#ECECEC" transform="translate(160,91)"/>
<path d="M0 0 C2.31 0.66 4.62 1.32 7 2 C6.36747553 5.19137349 5.24396936 7.51237368 3.5 10.25 C3.0565625 10.95640625 2.613125 11.6628125 2.15625 12.390625 C1.7746875 12.92171875 1.393125 13.4528125 1 14 C0.67 14 0.34 14 0 14 C0 9.38 0 4.76 0 0 Z " fill="#F2F2F2" transform="translate(288,153)"/>
<path d="M0 0 C4.95 0.99 4.95 0.99 10 2 C11 5 11 5 10.0625 7.1875 C9.711875 7.785625 9.36125 8.38375 9 9 C4.38348515 7.46116172 2.58734091 3.88101136 0 0 Z " fill="#E1E1E1" transform="translate(300,113)"/>
<path d="M0 0 C3.44653735 1.72326868 3.94777142 5.43600875 5.1796875 8.921875 C6.35691702 13.33928864 6.35388415 17.46831685 6 22 C2.30272669 14.87754709 0.63289767 7.9745107 0 0 Z " fill="#E1E1E1" transform="translate(342,133)"/>
<path d="M0 0 C8.17824952 2.39707314 15.46651278 6.08858772 23 10 C20 11 20 11 17.40625 9.96875 C15.46875 8.98958333 13.53125 8.01041667 11.59375 7.03125 C8.95157758 5.65816649 8.95157758 5.65816649 6 7 C4.5 5.625 4.5 5.625 3 4 C3 3.34 3 2.68 3 2 C2.01 1.67 1.02 1.34 0 1 C0 0.67 0 0.34 0 0 Z " fill="#CBCBCB" transform="translate(283,93)"/>
<path d="M0 0 C2.31 0.66 4.62 1.32 7 2 C7 5.99904969 5.27413033 7.80200422 3 11 C0.43383368 7.15075052 0.44902324 4.5650696 0 0 Z " fill="#ECECEC" transform="translate(314,118)"/>
<path d="M0 0 C0.66 0.33 1.32 0.66 2 1 C0.20049043 3.58391118 -1.61317961 5.93418366 -4 8 C-7.875 8.4375 -7.875 8.4375 -11 8 C-7.6378363 4.34117479 -4.63949148 1.85579659 0 0 Z " fill="#EDEDED" transform="translate(195,90)"/>
<path d="M0 0 C0.7734375 0.433125 0.7734375 0.433125 1.5625 0.875 C4.12060632 2.14948738 4.12060632 2.14948738 7.5625 2.875 C11.16212857 4.05306026 12.17552896 4.78034523 14 8 C3.875 6.125 3.875 6.125 0 3 C0 2.01 0 1.02 0 0 Z " fill="#D9D9D9" transform="translate(277,98)"/>
<path d="M0 0 C1.093125 0.0825 2.18625 0.165 3.3125 0.25 C3.3125 0.91 3.3125 1.57 3.3125 2.25 C-0.6475 4.23 -4.6075 6.21 -8.6875 8.25 C-4.72258772 0.32017544 -4.72258772 0.32017544 0 0 Z " fill="#EAEAEA" transform="translate(196.6875,100.75)"/>
<path d="M0 0 C-0.33 0.66 -0.66 1.32 -1 2 C-3.33163378 2.67258667 -5.6652039 3.33847444 -8 4 C-10.8334743 5.51462733 -10.8334743 5.51462733 -13 7 C-12.51963048 2.43648961 -12.51963048 2.43648961 -10.4375 0.6875 C-6.89342826 -0.31210998 -3.67781281 -0.12259376 0 0 Z " fill="#EEEEEE" transform="translate(177,91)"/>
<path d="M0 0 C1.84851083 2.77276624 2.5205764 4.39992766 3.25 7.5625 C3.44078125 8.34753906 3.6315625 9.13257812 3.828125 9.94140625 C3.88484375 10.62074219 3.9415625 11.30007812 4 12 C3.34 12.66 2.68 13.32 2 14 C0.05081856 11.58301501 -1.00815254 9.81253599 -0.9765625 6.6640625 C-0.71537901 4.42635527 -0.40084514 2.21672195 0 0 Z " fill="#ECECEC" transform="translate(231,84)"/>
<path d="M0 0 C2.97 0 5.94 0 9 0 C9 0.66 9 1.32 9 2 C7.35666496 3.03789581 5.68756133 4.03567924 4 5 C3.34 5.66 2.68 6.32 2 7 C1.34 4.69 0.68 2.38 0 0 Z " fill="#EEEEEE" transform="translate(235,84)"/>
<path d="M0 0 C0.33 0 0.66 0 1 0 C1.49230769 7.38461538 1.49230769 7.38461538 -1 10.5 C-1.66 10.995 -2.32 11.49 -3 12 C-4.21386936 8.35839192 -3.6674695 7.66834531 -2.0625 4.3125 C-1.49208984 3.10013672 -1.49208984 3.10013672 -0.91015625 1.86328125 C-0.60980469 1.24839844 -0.30945313 0.63351563 0 0 Z " fill="#F2F2F2" transform="translate(138,104)"/>
<path d="M0 0 C5.75 1.75 5.75 1.75 8 4 C5.29120665 5.35439668 2.99066732 5.06501451 0 5 C-0.33 4.34 -0.66 3.68 -1 3 C-0.67 2.01 -0.34 1.02 0 0 Z " fill="#F7F7F7" transform="translate(275,104)"/>
<path d="M0 0 C-1.17255709 3.33727786 -2.18868404 5.77437487 -5 8 C-5.66 8 -6.32 8 -7 8 C-7.33 7.01 -7.66 6.02 -8 5 C-2.25 0 -2.25 0 0 0 Z " fill="#EBEBEB" transform="translate(210,89)"/>
<path d="M0 0 C1.77226453 0.28284018 3.542788 0.57660498 5.3125 0.875 C6.29863281 1.03742188 7.28476563 1.19984375 8.30078125 1.3671875 C11 2 11 2 14 4 C4.58997722 4.3690205 4.58997722 4.3690205 0 2 C0 1.34 0 0.68 0 0 Z " fill="#EFEFEF" transform="translate(215,77)"/>
<path d="M0 0 C1.32 0.99 2.64 1.98 4 3 C2.35 4.98 0.7 6.96 -1 9 C-2.25541557 5.23375329 -1.37061958 3.62811066 0 0 Z " fill="#E3E3E3" transform="translate(252,106)"/>
<path d="M0 0 C0.66 0.33 1.32 0.66 2 1 C2.625 3.0625 2.625 3.0625 3 5 C1.02 5.66 -0.96 6.32 -3 7 C-1.125 1.125 -1.125 1.125 0 0 Z " fill="#F5F5F5" transform="translate(216,88)"/>
<path d="M0 0 C2.5 2.3125 2.5 2.3125 5 5 C5 5.99 5 6.98 5 8 C3.68 7.67 2.36 7.34 1 7 C0.67 4.69 0.34 2.38 0 0 Z " fill="#D7D7D7" transform="translate(220,84)"/>
<path d="M0 0 C2.475 0.495 2.475 0.495 5 1 C5 1.66 5 2.32 5 3 C4.01 3.495 4.01 3.495 3 4 C2.34 4.99 1.68 5.98 1 7 C0 6 0 6 -0.0625 2.9375 C-0.041875 1.968125 -0.02125 0.99875 0 0 Z " fill="#ECECEC" transform="translate(167,139)"/>
<path d="M0 0 C1.32 0.33 2.64 0.66 4 1 C3.67 2.65 3.34 4.3 3 6 C2.01 6 1.02 6 0 6 C0 4.02 0 2.04 0 0 Z " fill="#EDEDED" transform="translate(256,97)"/>
</svg>
